{
	"asset":{
		"generator":"Khronos glTF Blender I/O v3.6.28",
		"version":"2.0"
	},
	"scene":0,
	"scenes":[
		{
			"name":"Scene",
			"nodes":[
				6
			]
		}
	],
	"nodes":[
		{
			"name":"Top2",
			"rotation":[
				-0.7071067690849304,
				1.0048591563601838e-14,
				-1.6858739115832577e-07,
				0.7071067690849304
			],
			"translation":[
				1.2705494208814505e-21,
				0.20000001788139343,
				1.0097419586828951e-28
			]
		},
		{
			"children":[
				0
			],
			"name":"Top1",
			"rotation":[
				0.7071067094802856,
				-2.095693840686863e-09,
				1.706830659031766e-07,
				0.7071068286895752
			],
			"scale":[
				1,
				0.9999999403953552,
				0.9999999403953552
			],
			"translation":[
				0,
				0.20000000298023224,
				0
			]
		},
		{
			"name":"Bottom2",
			"rotation":[
				0.7071067690849304,
				1.0048591563601838e-14,
				1.6858739115832577e-07,
				0.7071067690849304
			],
			"translation":[
				0,
				0.19999998807907104,
				0
			]
		},
		{
			"children":[
				2
			],
			"name":"Bottom1",
			"rotation":[
				-0.7071067690849304,
				-2.0957040547386896e-09,
				-1.7068308011403133e-07,
				0.7071067690849304
			],
			"translation":[
				0,
				0.20000000298023224,
				0
			]
		},
		{
			"children":[
				1,
				3
			],
			"name":"Root",
			"rotation":[
				-0.7071067690849304,
				8.63893916402958e-08,
				-8.63893916402958e-08,
				0.7071067690849304
			],
			"translation":[
				0,
				0,
				0.20000000298023224
			]
		},
		{
			"mesh":0,
			"name":"testsm",
			"skin":0
		},
		{
			"children":[
				5,
				4
			],
			"name":"Armature",
			"translation":[
				0,
				0.20000000298023224,
				0
			]
		}
	],
	"animations":[
		{
			"channels":[
				{
					"sampler":0,
					"target":{
						"node":4,
						"path":"translation"
					}
				},
				{
					"sampler":1,
					"target":{
						"node":4,
						"path":"rotation"
					}
				},
				{
					"sampler":2,
					"target":{
						"node":4,
						"path":"scale"
					}
				},
				{
					"sampler":3,
					"target":{
						"node":1,
						"path":"translation"
					}
				},
				{
					"sampler":4,
					"target":{
						"node":1,
						"path":"rotation"
					}
				},
				{
					"sampler":5,
					"target":{
						"node":1,
						"path":"scale"
					}
				},
				{
					"sampler":6,
					"target":{
						"node":0,
						"path":"translation"
					}
				},
				{
					"sampler":7,
					"target":{
						"node":0,
						"path":"rotation"
					}
				},
				{
					"sampler":8,
					"target":{
						"node":0,
						"path":"scale"
					}
				},
				{
					"sampler":9,
					"target":{
						"node":3,
						"path":"translation"
					}
				},
				{
					"sampler":10,
					"target":{
						"node":3,
						"path":"rotation"
					}
				},
				{
					"sampler":11,
					"target":{
						"node":3,
						"path":"scale"
					}
				},
				{
					"sampler":12,
					"target":{
						"node":2,
						"path":"translation"
					}
				},
				{
					"sampler":13,
					"target":{
						"node":2,
						"path":"rotation"
					}
				},
				{
					"sampler":14,
					"target":{
						"node":2,
						"path":"scale"
					}
				}
			],
			"name":"ArmatureAction",
			"samplers":[
				{
					"input":7,
					"interpolation":"LINEAR",
					"output":8
				},
				{
					"input":7,
					"interpolation":"LINEAR",
					"output":9
				},
				{
					"input":10,
					"interpolation":"STEP",
					"output":11
				},
				{
					"input":10,
					"interpolation":"STEP",
					"output":12
				},
				{
					"input":7,
					"interpolation":"LINEAR",
					"output":13
				},
				{
					"input":10,
					"interpolation":"STEP",
					"output":14
				},
				{
					"input":10,
					"interpolation":"STEP",
					"output":15
				},
				{
					"input":7,
					"interpolation":"LINEAR",
					"output":16
				},
				{
					"input":10,
					"interpolation":"STEP",
					"output":17
				},
				{
					"input":10,
					"interpolation":"STEP",
					"output":18
				},
				{
					"input":7,
					"interpolation":"LINEAR",
					"output":19
				},
				{
					"input":10,
					"interpolation":"STEP",
					"output":20
				},
				{
					"input":10,
					"interpolation":"STEP",
					"output":21
				},
				{
					"input":7,
					"interpolation":"LINEAR",
					"output":22
				},
				{
					"input":10,
					"interpolation":"STEP",
					"output":23
				}
			]
		}
	],
	"meshes":[
		{
			"name":"testsm.001",
			"primitives":[
				{
					"attributes":{
						"COLOR_0":0,
						"POSITION":1,
						"NORMAL":2,
						"JOINTS_0":3,
						"WEIGHTS_0":4
					},
					"indices":5
				}
			]
		}
	],
	"skins":[
		{
			"inverseBindMatrices":6,
			"joints":[
				4,
				1,
				0,
				3,
				2
			],
			"name":"Armature"
		}
	],
	"accessors":[
		{
			"bufferView":0,
			"componentType":5126,
			"count":448,
			"type":"VEC4"
		},
		{
			"bufferView":1,
			"componentType":5126,
			"count":448,
			"max":[
				0.20000000298023224,
				0.4000000059604645,
				0.20000000298023224
			],
			"min":[
				-0.20000000298023224,
				0,
				-0.20000000298023224
			],
			"type":"VEC3"
		},
		{
			"bufferView":2,
			"componentType":5126,
			"count":448,
			"type":"VEC3"
		},
		{
			"bufferView":3,
			"componentType":5121,
			"count":448,
			"type":"VEC4"
		},
		{
			"bufferView":4,
			"componentType":5126,
			"count":448,
			"type":"VEC4"
		},
		{
			"bufferView":5,
			"componentType":5123,
			"count":672,
			"type":"SCALAR"
		},
		{
			"bufferView":6,
			"componentType":5126,
			"count":5,
			"type":"MAT4"
		},
		{
			"bufferView":7,
			"componentType":5126,
			"count":10,
			"max":[
				0.4166666666666667
			],
			"min":[
				0.041666666666666664
			],
			"type":"SCALAR"
		},
		{
			"bufferView":8,
			"componentType":5126,
			"count":10,
			"type":"VEC3"
		},
		{
			"bufferView":9,
			"componentType":5126,
			"count":10,
			"type":"VEC4"
		},
		{
			"bufferView":10,
			"componentType":5126,
			"count":2,
			"max":[
				0.4166666666666667
			],
			"min":[
				0.041666666666666664
			],
			"type":"SCALAR"
		},
		{
			"bufferView":11,
			"componentType":5126,
			"count":2,
			"type":"VEC3"
		},
		{
			"bufferView":12,
			"componentType":5126,
			"count":2,
			"type":"VEC3"
		},
		{
			"bufferView":13,
			"componentType":5126,
			"count":10,
			"type":"VEC4"
		},
		{
			"bufferView":14,
			"componentType":5126,
			"count":2,
			"type":"VEC3"
		},
		{
			"bufferView":15,
			"componentType":5126,
			"count":2,
			"type":"VEC3"
		},
		{
			"bufferView":16,
			"componentType":5126,
			"count":10,
			"type":"VEC4"
		},
		{
			"bufferView":17,
			"componentType":5126,
			"count":2,
			"type":"VEC3"
		},
		{
			"bufferView":18,
			"componentType":5126,
			"count":2,
			"type":"VEC3"
		},
		{
			"bufferView":19,
			"componentType":5126,
			"count":10,
			"type":"VEC4"
		},
		{
			"bufferView":20,
			"componentType":5126,
			"count":2,
			"type":"VEC3"
		},
		{
			"bufferView":21,
			"componentType":5126,
			"count":2,
			"type":"VEC3"
		},
		{
			"bufferView":22,
			"componentType":5126,
			"count":10,
			"type":"VEC4"
		},
		{
			"bufferView":23,
			"componentType":5126,
			"count":2,
			"type":"VEC3"
		}
	],
	"bufferViews":[
		{
			"buffer":0,
			"byteLength":7168,
			"byteOffset":0,
			"target":34962
		},
		{
			"buffer":0,
			"byteLength":5376,
			"byteOffset":7168,
			"target":34962
		},
		{
			"buffer":0,
			"byteLength":5376,
			"byteOffset":12544,
			"target":34962
		},
		{
			"buffer":0,
			"byteLength":1792,
			"byteOffset":17920,
			"target":34962
		},
		{
			"buffer":0,
			"byteLength":7168,
			"byteOffset":19712,
			"target":34962
		},
		{
			"buffer":0,
			"byteLength":1344,
			"byteOffset":26880,
			"target":34963
		},
		{
			"buffer":0,
			"byteLength":320,
			"byteOffset":28224
		},
		{
			"buffer":0,
			"byteLength":40,
			"byteOffset":28544
		},
		{
			"buffer":0,
			"byteLength":120,
			"byteOffset":28584
		},
		{
			"buffer":0,
			"byteLength":160,
			"byteOffset":28704
		},
		{
			"buffer":0,
			"byteLength":8,
			"byteOffset":28864
		},
		{
			"buffer":0,
			"byteLength":24,
			"byteOffset":28872
		},
		{
			"buffer":0,
			"byteLength":24,
			"byteOffset":28896
		},
		{
			"buffer":0,
			"byteLength":160,
			"byteOffset":28920
		},
		{
			"buffer":0,
			"byteLength":24,
			"byteOffset":29080
		},
		{
			"buffer":0,
			"byteLength":24,
			"byteOffset":29104
		},
		{
			"buffer":0,
			"byteLength":160,
			"byteOffset":29128
		},
		{
			"buffer":0,
			"byteLength":24,
			"byteOffset":29288
		},
		{
			"buffer":0,
			"byteLength":24,
			"byteOffset":29312
		},
		{
			"buffer":0,
			"byteLength":160,
			"byteOffset":29336
		},
		{
			"buffer":0,
			"byteLength":24,
			"byteOffset":29496
		},
		{
			"buffer":0,
			"byteLength":24,
			"byteOffset":29520
		},
		{
			"buffer":0,
			"byteLength":160,
			"byteOffset":29544
		},
		{
			"buffer":0,
			"byteLength":24,
			"byteOffset":29704
		}
	],
	"buffers":[
		{
			"byteLength":29728,
			"uri":"data:application/octet-stream;base64,"
		}
	]
}
